Coordinates
version=1
nRows=14
nColumns=24
inDegrees=yes

Units are S.I. units (second, meters, Newtons, ...)
Angles are in degrees.

endheader
time	pelvis_tilt	pelvis_list	pelvis_rotation	pelvis_tx	pelvis_ty	pelvis_tz	hip_flexion_r	hip_adduction_r	hip_rotation_r	knee_angle_r	ankle_angle_r	subtalar_angle_r	mtp_angle_r	hip_flexion_l	hip_adduction_l	hip_rotation_l	knee_angle_l	ankle_angle_l	subtalar_angle_l	mtp_angle_l	lumbar_extension	lumbar_bending	lumbar_rotation
      0.44600000	     -4.16034232	      3.31907948	     -1.55390099	     -0.76886952	      1.05366705	      0.32348377	     27.46474574	     -0.20506925	     -5.38142640	     -7.94596365	      3.18085283	     -5.71657836	     -0.13574272	     -6.46700447	      7.04186916	      1.39737547	     -6.45848037	     11.44034948	     -5.83812038	     -0.11562162	      7.58020291	     -0.34633325	     -1.97440916
      0.45016667	     -4.16124907	      3.31134266	     -1.65335700	     -0.76322797	      1.05308080	      0.32383794	     27.33835537	     -0.08951418	     -5.21033248	     -7.77102697	      3.02091938	     -5.43095646	     -0.16467055	     -6.57957460	      7.04473417	      1.31098339	     -6.90553878	     11.60346368	     -5.98593421	     -0.22957482	      7.65377413	     -0.35587815	     -2.30235034
      0.45433333	     -4.19297447	      3.29853678	     -1.63175713	     -0.75761996	      1.05252237	      0.32407765	     27.23864729	     -0.01829761	     -5.13844723	     -7.68493940	      3.00864507	     -5.37724301	     -0.16878941	     -6.61518022	      7.01871000	      1.31556276	     -7.43311445	     11.61369428	     -6.01225087	     -0.24978746	      7.68852301	     -0.35304313	     -2.33469356
      0.45850000	     -4.21033891	      3.27746600	     -1.62819329	     -0.75195454	      1.05200086	      0.32430568	     27.12706839	      0.06342618	     -5.03051946	     -7.67422214	      2.96094276	     -5.31663846	     -0.17182547	     -6.65247365	      6.98453871	      1.30545375	     -7.99903695	     11.65407713	     -6.02825578	     -0.26662314	      7.73977907	     -0.32396821	     -2.36826514
      0.46266667	     -4.21897919	      3.25331007	     -1.63055052	     -0.74623555	      1.05150495	      0.32454951	     27.00740110	      0.14766735	     -4.88672136	     -7.73016266	      2.87797215	     -5.25442047	     -0.17447300	     -6.67976738	      6.94426644	      1.26900572	     -8.60999311	     11.71793293	     -6.02409667	     -0.28312677	      7.79273208	     -0.28007981	     -2.40783205
      0.46683333	     -4.21390429	      3.19098695	     -1.75318869	     -0.74037070	      1.05102623	      0.32528764	     26.85178937	      0.36062839	     -4.45160861	     -7.78255577	      2.49695682	     -5.46814318	     -0.20793661	     -6.69093951	      6.83183516	      0.80898387	     -9.30977732	     12.25666167	     -5.13750133	     -0.48396152	      7.87254255	     -0.33693413	     -2.73847989
      0.47100000	     -4.20387600	      3.17805770	     -1.74689587	     -0.73466556	      1.05060813	      0.32544498	     26.73193735	      0.41388052	     -4.32985815	     -7.98451116	      2.43747863	     -5.44617211	     -0.20873028	     -6.68483849	      6.80053064	      0.79827447	    -10.02282260	     12.23503935	     -5.15008502	     -0.49677659	      7.90555816	     -0.25283368	     -2.75089407
      0.47516667	     -4.21543139	      3.12901389	     -1.86289816	     -0.72879521	      1.05014911	      0.32611509	     26.60727269	      0.59648684	     -3.87937770	     -8.15210758	      2.00732128	     -5.69047897	     -0.21869121	     -6.62367266	      6.69734097	      0.36814190	    -10.82060374	     12.45967115	     -4.56856305	     -0.62678874	      7.95737947	     -0.22696185	     -2.80690312
      0.47933333	     -4.18361534	      3.10758298	     -1.84987344	     -0.72304615	      1.04983451	      0.32624970	     26.46569404	      0.64549721	     -3.76451272	     -8.44378561	      1.94834826	     -5.68286496	     -0.21798758	     -6.58525935	      6.64787399	      0.34449939	    -11.64842054	     12.41639473	     -4.56167766	     -0.63572388	      7.99162237	     -0.14162980	     -2.81210752
      0.48350000	     -4.20365763	      3.04695967	     -1.93290322	     -0.71718188	      1.04944423	      0.32704650	     26.34419059	      0.83803190	     -3.30992719	     -8.68143510	      1.53226452	     -6.23134243	     -0.20805491	     -6.43413176	      6.49311798	     -0.19324067	    -12.60751850	     12.65464245	     -3.58974334	     -0.75071938	      7.98229877	     -0.08038300	     -2.80194845
      0.48766667	     -4.14216486	      3.01072039	     -1.92547408	     -0.71140210	      1.04924793	      0.32717818	     26.16633958	      0.89119152	     -3.19253177	     -9.02123549	      1.43719215	     -6.19309635	     -0.20597122	     -6.36623758	      6.41562994	     -0.25767466	    -13.55527856	     12.57793493	     -3.58899546	     -0.75620651	      8.03240244	     -0.00188323	     -2.80447698
      0.49183333	     -4.15866360	      2.94303957	     -2.04050928	     -0.70547749	      1.04893376	      0.32794738	     26.05141079	      1.08433339	     -2.79813614	     -9.31247171	      0.90150509	     -6.39803582	     -0.18845587	     -6.16668896	      6.24998262	     -0.81199294	    -14.60558206	     12.48709155	     -2.78721467	     -0.78012908	      8.03918136	      0.01886332	     -2.79503561
      0.49600000	     -4.13750254	      2.87677546	     -2.09054676	     -0.69964924	      1.04873355	      0.32853610	     25.90089312	      1.23031309	     -2.52989066	     -9.65192374	      0.60786544	     -6.80611603	     -0.15816332	     -5.96685583	      6.08287358	     -1.21635660	    -15.73266979	     12.50663016	     -2.10666836	     -0.77987699	      8.04091593	      0.12187739	     -2.75656093
      0.50016667	     -4.10441654	      2.79573518	     -2.09391116	     -0.69380425	      1.04861914	      0.32880355	     25.74401444	      1.33342018	     -2.46694846	    -10.03062030	      0.46889315	     -6.79733677	     -0.15096028	     -5.75594679	      5.91896417	     -1.45741428	    -16.89823824	     12.36577418	     -2.02242395	     -0.77564572	      7.98865818	      0.24263833	     -2.76514797
